<svg width="30" height="30" viewBox="0 0 30 30" fill="none" xmlns="http://www.w3.org/2000/svg">
<path fill-rule="evenodd" clip-rule="evenodd" d="M10.4311 13.174C10.0191 13.0361 9.70386 12.6862 9.59879 12.2193C9.48824 11.7286 9.63534 11.2545 9.97065 10.942C9.85005 10.4714 9.78884 9.98812 9.78884 9.50023C9.78884 6.46688 12.1269 4 15.0003 4C17.8738 4 20.2119 6.46779 20.2119 9.50023C20.2119 9.98995 20.1506 10.4733 20.03 10.9429C20.3663 11.2554 20.5134 11.7296 20.4028 12.2202C20.2987 12.6862 19.9825 13.0361 19.5705 13.174C19.2425 15.4692 17.4115 17.7944 15.0013 17.7944C12.591 17.7944 10.7601 15.4692 10.4311 13.174ZM10.9364 10.9904C11.0067 11.2088 10.9044 11.4454 10.697 11.5432C10.4266 11.6711 10.4768 11.9625 10.4905 12.0201C10.5061 12.0914 10.5782 12.3234 10.8286 12.3262H10.8405C11.0789 12.3262 11.2854 12.5089 11.3037 12.7483C11.448 14.7026 13.0022 16.8808 15.0013 16.8808C16.9994 16.8808 18.5536 14.7035 18.6979 12.7483C18.7162 12.5098 18.9145 12.3253 19.1538 12.3253H19.1548C19.4234 12.3253 19.4955 12.0914 19.5129 12.0183C19.5248 11.9616 19.5759 11.6702 19.3055 11.5423C19.0981 11.4445 18.9958 11.2079 19.0661 10.9895C19.2205 10.5098 19.2991 10.0091 19.2991 9.50023C19.2991 6.97122 17.3704 4.91366 15.0013 4.91366C12.6312 4.91366 10.7034 6.97122 10.7034 9.50023C10.7034 10.0073 10.782 10.5089 10.9364 10.9904Z" fill="#3B3B71"/>
<path fill-rule="evenodd" clip-rule="evenodd" d="M17.6802 18.7821C18.4276 18.3874 24.4294 21.45 25.7259 22.7081C25.9013 22.8753 26.0009 23.111 26 23.3549V24.9383C26 25.4344 25.5971 25.8374 25.1009 25.8374H4.89995C4.40384 25.8374 4 25.4344 4 24.9383V23.3549C4 23.1119 4.09959 22.8771 4.2741 22.7081C5.41617 21.5989 11.5148 18.3472 12.3152 18.7793C13.799 19.5724 16.2037 19.5733 17.6802 18.7821ZM4.91092 23.3641L4.91457 24.9383L25.1019 24.9237L25.0872 23.3604C23.4353 21.7588 18.8853 19.9753 17.9479 19.6711C16.2531 20.4925 13.746 20.4934 12.053 19.6692C11.1128 19.9689 6.61124 21.7131 4.91092 23.3641Z" fill="#3B3B71"/>
</svg>
