<svg width="21" height="21" viewBox="0 0 21 21" fill="none" xmlns="http://www.w3.org/2000/svg">
<path fill-rule="evenodd" clip-rule="evenodd" d="M18.4625 0H2.5375C1.162 0 0 1.162 0 2.5375V18.4625C0 19.838 1.162 21 2.5375 21H18.4625C19.838 21 21 19.838 21 18.4634V2.5375C21 1.162 19.838 0 18.4625 0ZM2.5375 0.875H18.4625C19.3638 0.875 20.125 1.63625 20.125 2.5375V5.25H0.875V2.5375C0.875 1.63625 1.63625 0.875 2.5375 0.875ZM2.5375 20.125H18.4625C19.3638 20.125 20.125 19.3638 20.125 18.4625V6.125H0.875V18.4625C0.875 19.3638 1.63625 20.125 2.5375 20.125Z" fill="black"/>
<path d="M6.45455 4H6.54545C6.79636 4 7 3.776 7 3.5C7 3.224 6.79636 3 6.54545 3H6.45455C6.20364 3 6 3.223 6 3.5C6 3.777 6.20364 4 6.45455 4Z" fill="black"/>
<path d="M14.5238 4C14.7867 4 15 3.776 15 3.5C15 3.224 14.7867 3 14.5238 3H14.4286C14.1657 3 14 3.224 14 3.5C14 3.776 14.261 4 14.5238 4Z" fill="black"/>
<path d="M14.3439 9.0292L12.3119 9.75646C12.0613 9.84646 11.9364 10.1083 12.0322 10.3437C12.1271 10.5783 12.4077 10.6955 12.6564 10.6064L14.0324 10.1137V17.5455C14.0324 17.7964 14.2491 18 14.5162 18C14.7832 18 15 17.7964 15 17.5455V9.45465C15 9.30465 14.9216 9.16556 14.79 9.0801C14.6594 8.99465 14.492 8.97738 14.3439 9.0292Z" fill="black"/>
<path d="M8.32136 12.88L10.8746 9.72963C10.9834 9.59624 11.0048 9.41092 10.9317 9.25515C10.8577 9.09937 10.7008 9 10.5287 9H5.80377C5.55772 9 5.35802 9.20054 5.35802 9.44763C5.35802 9.69472 5.55772 9.89526 5.80377 9.89526H9.59085L7.06256 13.0143C6.95023 13.1531 6.93062 13.3456 7.01353 13.504C7.09555 13.6634 7.26404 13.769 7.44234 13.7431C7.88898 13.7135 9.17006 13.7592 9.76647 14.3948C10.0535 14.7001 10.1587 15.1128 10.0865 15.6553C9.95725 16.6294 9.28863 16.9561 8.75106 17.0582C7.65987 17.2659 6.2727 16.735 5.83586 15.9445C5.7164 15.7296 5.44539 15.6517 5.22965 15.7708C5.0139 15.8917 4.93634 16.1629 5.0567 16.3805C5.58714 17.3393 6.95113 18 8.25271 18C8.47737 17.9991 8.70024 17.9803 8.91688 17.9391C10.0687 17.7198 10.8158 16.9311 10.97 15.7753C11.0788 14.9579 10.8915 14.2874 10.4137 13.7798C9.8476 13.1764 8.98463 12.9561 8.32136 12.88Z" fill="black"/>
</svg>
