<svg width="24" height="25" viewBox="0 0 24 25" fill="none" xmlns="http://www.w3.org/2000/svg">
<path fill-rule="evenodd" clip-rule="evenodd" d="M7.80676 5.52141C7.78776 5.52141 7.76976 5.52243 7.75176 5.52345C7.46276 5.53878 7.18376 5.67065 6.96476 5.89452L6.01976 6.8595C5.37076 7.52292 5.21276 8.51447 5.64476 9.21572C8.00876 13.046 11.2378 16.3478 14.9848 18.7623C15.6718 19.2059 16.6398 19.0434 17.2898 18.3799L18.2338 17.415C18.4528 17.1901 18.5818 16.9049 18.5978 16.6095C18.6118 16.3345 18.5228 16.0861 18.3488 15.9072L16.7998 14.3238C16.4248 13.9404 15.7638 13.9926 15.3258 14.4413L14.7508 15.0271C14.5718 15.2121 14.2838 15.2274 14.0858 15.0649C12.3318 13.6276 10.6638 11.9236 9.26276 10.1347C9.10276 9.93025 9.11876 9.6379 9.29976 9.4539L9.87276 8.86714C10.3108 8.41941 10.3628 7.74372 9.98776 7.36038L8.43776 5.77696C8.27576 5.61136 8.05376 5.52141 7.80676 5.52141ZM15.8498 20.0308C15.3568 20.0308 14.8728 19.8979 14.4518 19.6271C10.5788 17.1308 7.24176 13.7196 4.79976 9.76056C4.11976 8.65861 4.33676 7.13447 5.31276 6.13678L6.25776 5.17181C6.65076 4.76905 7.16276 4.53087 7.69876 4.50225C8.25476 4.47056 8.76776 4.66887 9.14476 5.05425L10.6948 6.63767C11.4588 7.41967 11.4078 8.74447 10.5798 9.58985L10.3258 9.8495C11.5258 11.3348 12.9098 12.7475 14.3638 13.9772L14.6188 13.7186C15.4458 12.8712 16.7418 12.8211 17.5058 13.6011L19.0558 15.1845C19.4328 15.5699 19.6248 16.0953 19.5958 16.6626C19.5678 17.2105 19.3348 17.7339 18.9418 18.1377L17.9968 19.1026C17.4018 19.7109 16.6168 20.0308 15.8498 20.0308Z" fill="black"/>
<path fill-rule="evenodd" clip-rule="evenodd" d="M12 24.5333C5.383 24.5333 0 19.0307 0 12.2667C0 5.50262 5.383 0 12 0C18.617 0 24 5.50262 24 12.2667C24 14.7578 23.274 17.156 21.9 19.2004C21.745 19.4335 21.433 19.4938 21.205 19.3323C20.978 19.1728 20.92 18.8539 21.076 18.6218C22.335 16.7481 23 14.5503 23 12.2667C23 6.06689 18.065 1.02222 12 1.02222C5.935 1.02222 1 6.06689 1 12.2667C1 18.4664 5.935 23.5111 12 23.5111C14.897 23.5111 16.813 22.7301 17.539 21.252C18.11 20.0867 17.753 18.9111 17.634 18.7476C17.438 18.5482 17.445 18.2313 17.64 18.032C17.834 17.8306 18.158 17.8378 18.354 18.0381C18.743 18.4368 19.153 19.9589 18.549 21.4493C17.979 22.8559 16.38 24.5333 12 24.5333" fill="black"/>
</svg>