<?xml version="1.0" encoding="UTF-8"?>
<svg width="24px" height="24px" viewBox="0 0 24 24" version="1.1" xmlns="http://www.w3.org/2000/svg" xmlns:xlink="http://www.w3.org/1999/xlink">
    <title>call icon</title>
    <g id="Website" stroke="none" stroke-width="1" fill="none" fill-rule="evenodd">
        <g id="01-Home" transform="translate(-1269.000000, -9.000000)" fill="#FFFFFF">
            <g id="Group-5" transform="translate(1269.000000, 9.000000)">
                <path d="M7.8071,5.4014 C7.7881,5.4014 7.7701,5.4024 7.7521,5.4034 C7.4631,5.4184 7.1841,5.5474 6.9651,5.7664 L6.0201,6.7104 C5.3711,7.3594 5.2131,8.3294 5.6451,9.0154 C8.0091,12.7624 11.2381,15.9924 14.9851,18.3544 C15.6721,18.7884 16.6401,18.6294 17.2901,17.9804 L18.2341,17.0364 C18.4531,16.8164 18.5821,16.5374 18.5981,16.2484 C18.6121,15.9794 18.5231,15.7364 18.3491,15.5614 L16.8001,14.0124 C16.4251,13.6374 15.7641,13.6884 15.3261,14.1274 L14.7511,14.7004 C14.5721,14.8814 14.2841,14.8964 14.0861,14.7374 C12.3321,13.3314 10.6641,11.6644 9.2631,9.9144 C9.1031,9.7144 9.1191,9.4284 9.3001,9.2484 L9.8731,8.6744 C10.3111,8.2364 10.3631,7.5754 9.9881,7.2004 L8.4381,5.6514 C8.2761,5.4894 8.0541,5.4014 7.8071,5.4014 M15.8501,19.5954 C15.3571,19.5954 14.8731,19.4654 14.4521,19.2004 C10.5791,16.7584 7.2421,13.4214 4.8001,9.5484 C4.1201,8.4704 4.3371,6.9794 5.3131,6.0034 L6.2581,5.0594 C6.6511,4.6654 7.1631,4.4324 7.6991,4.4044 C8.2551,4.3734 8.7681,4.5674 9.1451,4.9444 L10.6951,6.4934 C11.4591,7.2584 11.4081,8.5544 10.5801,9.3814 L10.3261,9.6354 C11.5261,11.0884 12.9101,12.4704 14.3641,13.6734 L14.6191,13.4204 C15.4461,12.5914 16.7421,12.5424 17.5061,13.3054 L19.0561,14.8544 C19.4331,15.2314 19.6251,15.7454 19.5961,16.3004 C19.5681,16.8364 19.3351,17.3484 18.9421,17.7434 L17.9971,18.6874 C17.4021,19.2824 16.6171,19.5954 15.8501,19.5954" id="Fill-1"></path>
                <path d="M12,24 C5.383,24 0,18.617 0,12 C0,5.383 5.383,0 12,0 C18.617,0 24,5.383 24,12 C24,14.437 23.274,16.783 21.9,18.783 C21.745,19.011 21.433,19.07 21.205,18.912 C20.978,18.756 20.92,18.444 21.076,18.217 C22.335,16.384 23,14.234 23,12 C23,5.935 18.065,1 12,1 C5.935,1 1,5.935 1,12 C1,18.065 5.935,23 12,23 C14.897,23 16.813,22.236 17.539,20.79 C18.11,19.65 17.753,18.5 17.634,18.34 C17.438,18.145 17.445,17.835 17.64,17.64 C17.834,17.443 18.158,17.45 18.354,17.646 C18.743,18.036 19.153,19.525 18.549,20.983 C17.979,22.359 16.38,24 12,24" id="Fill-3"></path>
            </g>
        </g>
    </g>
</svg>