<svg width="30" height="30" viewBox="0 0 30 30" fill="none" xmlns="http://www.w3.org/2000/svg">
<path fill-rule="evenodd" clip-rule="evenodd" d="M25.733 5.745C25.805 5.479 26.078 5.321 26.346 5.394C26.612 5.467 26.769 5.741 26.698 6.008L24.388 14.495C24.247 15.09 23.706 15.518 23.076 15.518L9.271 17.015L8.802 18.683C8.794 18.728 8.83 18.787 8.852 18.814C8.875 18.842 8.927 18.89 9.012 18.89H23.288C23.564 18.89 23.788 19.114 23.788 19.39C23.788 19.666 23.564 19.89 23.288 19.89H9.011C8.647 19.89 8.306 19.728 8.076 19.447C7.847 19.166 7.757 18.801 7.83 18.447L8.365 16.541L6.32 7.579V7.578L6.319 7.574C6.303 7.503 6.305 7.432 6.318 7.366C6.3185 7.3645 6.31825 7.36325 6.318 7.362C6.31775 7.36075 6.3175 7.3595 6.318 7.358L6.779 5.195C6.722 5.079 6.6 5 6.464 5H3.5C3.224 5 3 4.776 3 4.5C3 4.224 3.224 4 3.5 4H6.464C7.098 4 7.653 4.449 7.785 5.066C7.8 5.135 7.8 5.206 7.785 5.275L7.425 6.962H25.401L25.733 5.745ZM23.023 14.521C23.24 14.519 23.381 14.408 23.419 14.249L25.129 7.962H7.433L9.27 16.01L23.023 14.521Z" fill="#3B3B71"/>
<path fill-rule="evenodd" clip-rule="evenodd" d="M7.83203 22.874C7.83203 21.766 8.73703 20.865 9.84903 20.865C10.96 20.865 11.865 21.766 11.865 22.874C11.865 23.983 10.961 24.884 9.84903 24.884C8.73703 24.884 7.83203 23.982 7.83203 22.874ZM8.83203 22.874C8.83203 23.431 9.28803 23.884 9.84903 23.884C10.409 23.884 10.865 23.431 10.865 22.874C10.865 22.317 10.409 21.865 9.84903 21.865C9.28803 21.865 8.83203 22.317 8.83203 22.874Z" fill="#3B3B71"/>
<path fill-rule="evenodd" clip-rule="evenodd" d="M19.7559 22.874C19.7559 21.766 20.6609 20.865 21.7719 20.865C22.8849 20.865 23.7889 21.766 23.7889 22.874C23.7889 23.983 22.8839 24.884 21.7719 24.884C20.6599 24.884 19.7559 23.982 19.7559 22.874ZM20.7559 22.874C20.7559 23.431 21.2119 23.884 21.7719 23.884C22.3329 23.884 22.7889 23.431 22.7889 22.874C22.7889 22.317 22.3329 21.865 21.7719 21.865C21.2119 21.865 20.7559 22.317 20.7559 22.874Z" fill="#3B3B71"/>
</svg>
