<svg width="13" height="13" viewBox="0 0 13 13" fill="none" xmlns="http://www.w3.org/2000/svg">
<path fill-rule="evenodd" clip-rule="evenodd" d="M10.2329 5.40243L6.149 9.48629C5.97536 9.65993 5.74507 9.75557 5.499 9.75557C5.25386 9.75557 5.02264 9.65993 4.849 9.48629L2.76807 7.40443C2.59443 7.23079 2.49879 7.0005 2.49879 6.75443C2.49879 6.50929 2.59443 6.27807 2.76807 6.10443C2.94171 5.93079 3.172 5.83514 3.41807 5.83514C3.66321 5.83514 3.89443 5.93079 4.06807 6.10443L5.499 7.53629L8.93286 4.10243C9.1065 3.92879 9.33679 3.83314 9.58286 3.83314C9.828 3.83314 10.0592 3.92879 10.2329 4.10243C10.5913 4.46086 10.5913 5.044 10.2329 5.40243ZM6.5 0C2.91664 0 0 2.91664 0 6.5C0 10.0843 2.91664 13 6.5 13C10.0843 13 13 10.0843 13 6.5C13 2.91664 10.0843 0 6.5 0Z" fill="#57AD5C"/>
</svg>
