<svg width="28" height="28" fill="none" xmlns="http://www.w3.org/2000/svg">
  <path fill-rule="evenodd" clip-rule="evenodd" d="M28 14C28 6.26762 21.7324 0 14 0C6.26762 0 0 6.26762 0 14C0 21.7324 6.26762 28 14 28C14.0822 28 14.1636 28 14.2459 27.9947V17.101H11.2385V13.5957H14.2459V11.0136C14.2459 8.02287 16.0729 6.39275 18.7416 6.39275C20.0209 6.39275 21.1199 6.48638 21.4375 6.52925V9.65825H19.6C18.151 9.65825 17.8666 10.3469 17.8666 11.3584V13.5896H21.3386L20.8854 17.0958H17.8666V27.4584C23.7178 25.7793 28 20.3927 28 14Z" fill="#fff"/>
</svg>
