<svg width="30" height="30" viewBox="0 0 30 30" fill="none" xmlns="http://www.w3.org/2000/svg">
<path fill-rule="evenodd" clip-rule="evenodd" d="M16.3929 5.855C18.9653 3.387 23.1521 3.386 25.7265 5.855C28.2998 8.324 28.2998 12.341 25.7275 14.81L15.6977 24.433C15.5956 24.53 15.4622 24.579 15.3288 24.579C15.1954 24.579 15.0619 24.531 14.9598 24.433L4.93003 14.81C2.35666 12.341 2.35666 8.324 4.93003 5.855C6.17658 4.659 7.83275 4 9.59628 4C11.3598 4 13.017 4.659 14.2646 5.855L15.3288 6.876L16.3929 5.855ZM15.3277 23.372L24.9896 14.103C27.1565 12.024 27.1565 8.641 24.9896 6.562C22.8206 4.483 19.2946 4.485 17.1298 6.562L15.6967 7.937C15.4934 8.132 15.163 8.132 14.9598 7.937L13.5267 6.562C12.4761 5.555 11.0815 5 9.59628 5C8.11104 5 6.71544 5.555 5.66587 6.562C3.49899 8.641 3.49899 12.024 5.66587 14.103L15.3277 23.372Z" fill="#3B3B71"/>
</svg>
