<svg width="28" height="28" fill="none" xmlns="http://www.w3.org/2000/svg">
  <path fill-rule="evenodd" clip-rule="evenodd" d="M16.6797 13.9999C16.6797 15.4796 15.4801 16.6801 13.9996 16.6801C12.5199 16.6801 11.3203 15.4796 11.3203 13.9999C11.3203 12.5203 12.5199 11.3198 13.9996 11.3198C15.4801 11.3198 16.6797 12.5203 16.6797 13.9999Z" fill="#fff"/>
  <path fill-rule="evenodd" clip-rule="evenodd" d="M18.2916 10.6734C17.7587 10.6734 17.3264 10.2412 17.3264 9.70829C17.3264 9.17629 17.7587 8.74404 18.2916 8.74404C18.8244 8.74404 19.2567 9.17629 19.2567 9.70829C19.2558 10.2412 18.8244 10.6734 18.2916 10.6734ZM14.0006 18.1284C11.7203 18.1284 9.8723 16.2795 9.8723 14.0002C9.8723 11.7199 11.7203 9.87192 14.0006 9.87192C16.2799 9.87192 18.1279 11.7199 18.1279 14.0002C18.1279 16.2795 16.2799 18.1284 14.0006 18.1284ZM20.2673 9.25854C20.1387 8.90942 19.9331 8.59354 19.6662 8.33454C19.4063 8.06767 19.0904 7.86204 18.7413 7.73342C18.4578 7.62317 18.0326 7.49192 17.2486 7.45604C16.4007 7.41754 16.1469 7.40967 14.0006 7.40967C11.8533 7.40967 11.5996 7.41754 10.7517 7.45604C9.96768 7.49192 9.54243 7.62317 9.25893 7.73342C8.9098 7.86204 8.59393 8.06767 8.33493 8.33454C8.06805 8.59354 7.86243 8.90942 7.73293 9.25854C7.62355 9.54204 7.4923 9.96817 7.45643 10.7513C7.41793 11.5992 7.40918 11.8538 7.40918 14.0002C7.40918 16.1465 7.41793 16.4012 7.45643 17.249C7.4923 18.0322 7.62355 18.4583 7.73293 18.7409C7.86243 19.0909 8.06718 19.4059 8.33493 19.6658C8.59393 19.9327 8.9098 20.1383 9.25893 20.2669C9.54243 20.3772 9.96768 20.5084 10.7517 20.5443C11.5996 20.5828 11.8533 20.5907 13.9997 20.5907C16.1469 20.5907 16.4016 20.5828 17.2486 20.5443C18.0326 20.5084 18.4578 20.3772 18.7413 20.2669C19.4422 19.9965 19.9969 19.4427 20.2673 18.7409C20.3776 18.4583 20.5079 18.0322 20.5438 17.249C20.5823 16.4012 20.5911 16.1465 20.5911 14.0002C20.5911 11.8538 20.5823 11.5992 20.5438 10.7513C20.5079 9.96817 20.3776 9.54204 20.2673 9.25854Z" fill="#fff"/>
  <path fill-rule="evenodd" clip-rule="evenodd" d="M21.9905 17.3145C21.952 18.1702 21.8155 18.7547 21.6169 19.2658C21.1995 20.3455 20.3455 21.1995 19.2658 21.6169C18.7547 21.8155 18.1702 21.952 17.3145 21.9905C16.457 22.0299 16.1831 22.0395 14 22.0395C11.8169 22.0395 11.543 22.0299 10.6855 21.9905C9.82975 21.952 9.24525 21.8155 8.73425 21.6169C8.19788 21.4156 7.71225 21.0989 7.31062 20.6894C6.90112 20.2886 6.58525 19.8021 6.38312 19.2658C6.1845 18.7547 6.04887 18.1702 6.0095 17.3145C5.97012 16.457 5.9605 16.1831 5.9605 14C5.9605 11.8169 5.97012 11.543 6.0095 10.6855C6.048 9.82975 6.1845 9.24613 6.38312 8.73425C6.58437 8.19788 6.90112 7.71225 7.31062 7.31063C7.71137 6.90112 8.19788 6.58525 8.73425 6.38313C9.24525 6.1845 9.82975 6.04888 10.6855 6.0095C11.543 5.97013 11.8169 5.96138 14 5.96138C16.1831 5.96138 16.457 5.97013 17.3145 6.0095C18.1702 6.04888 18.7547 6.1845 19.2658 6.38313C19.8021 6.58525 20.2878 6.90112 20.6894 7.31063C21.0989 7.71225 21.4156 8.19788 21.6169 8.73425C21.8155 9.24613 21.952 9.82975 21.9905 10.6855C22.0299 11.543 22.0386 11.8169 22.0386 14C22.0386 16.1831 22.0299 16.457 21.9905 17.3145ZM14 0C6.26937 0 0 6.26937 0 14C0 21.7306 6.26937 28 14 28C21.7306 28 28 21.7306 28 14C28 6.26937 21.7306 0 14 0Z" fill="#fff"/>
</svg>
