<svg width="20" height="15" fill="none" xmlns="http://www.w3.org/2000/svg">
  <path d="M17 2 11 8C10 8 10 8 9 8L3 2C3 2 2 2 2 2 2 2 2 3 2 3L9 9C9 9 9 9 10 9 10 9 11 9 11 9L18 3C18 3 18 2 18 2 18 2 17 2 17 2ZM13 9C13 8 13 8 13 9 13 9 13 9 13 9L17 13C17 13 17 13 17 13 18 13 18 13 18 13 18 13 18 12 18 12L13 9ZM7 9 2 12C2 12 2 13 2 13 2 13 2 13 2 13 3 13 3 13 3 13L7 9C7 9 7 9 7 9 7 8 7 8 7 9Z" fill="#fff"/>
  <path fill-rule="evenodd" clip-rule="evenodd" d="M2.36833 0H17.625C18.935 0 20 1.04333 20 2.32583V12.6775C20 13.9583 18.9342 15 17.625 15H2.36833C1.04083 15 0 13.9792 0 12.6775V2.32583C0 1.02167 1.04083 0 2.36833 0ZM17.625 14.1667C18.49 14.1667 19.1667 13.5125 19.1667 12.6775V2.32583C19.1667 1.48833 18.49 0.833333 17.625 0.833333H2.36833C1.5075 0.833333 0.833333 1.48833 0.833333 2.32583V12.6775C0.833333 13.5125 1.5075 14.1667 2.36833 14.1667H17.625Z" fill="#fff"/>
</svg>
