<svg width="16" height="24" viewBox="0 0 16 24" fill="none" xmlns="http://www.w3.org/2000/svg">
<path fill-rule="evenodd" clip-rule="evenodd" d="M0 7.871C0 3.531 3.53 0 7.87 0C12.21 0 15.74 3.531 15.74 7.871C15.74 12.042 8.592 22.954 8.287 23.416C8.195 23.557 8.038 23.642 7.87 23.642C7.702 23.642 7.545 23.557 7.453 23.416C7.148 22.954 0 12.043 0 7.871ZM1 7.871C1 11.199 6.321 19.789 7.87 22.219C9.419 19.788 14.74 11.198 14.74 7.871C14.74 4.082 11.658 1 7.87 1C4.082 1 1 4.082 1 7.871Z" fill="#3B3B71"/>
<path fill-rule="evenodd" clip-rule="evenodd" d="M4.82617 6.81204C4.82617 5.13404 6.19217 3.76904 7.87017 3.76904C9.54917 3.76904 10.9142 5.13404 10.9142 6.81204C10.9142 8.49004 9.54917 9.85604 7.87017 9.85604C6.19217 9.85604 4.82617 8.49004 4.82617 6.81204ZM5.82617 6.81304C5.82617 7.94004 6.74317 8.85704 7.87017 8.85704C8.99717 8.85704 9.91417 7.93904 9.91417 6.81304C9.91417 5.68704 8.99717 4.77004 7.87017 4.77004C6.74317 4.77004 5.82617 5.68604 5.82617 6.81304Z" fill="#3B3B71"/>
</svg>
