<svg width="19" height="20" fill="none" xmlns="http://www.w3.org/2000/svg">
  <path fill-rule="evenodd" clip-rule="evenodd" d="M14.3209 10.6784L18.7297 15.13C19.0832 15.4925 19.0912 16.0612 18.7466 16.4296L18.7425 16.434C18.6578 16.5235 17.5123 17.7354 16.701 18.3178C15.8715 18.9134 14.9971 19.1823 14.1077 19.1823C10.7012 19.1833 7.1127 15.5266 5.32925 13.7093L5.32398 13.7039C1.64616 9.95037 -0.0458625 7.12702 0.000944382 4.81755C0.04078 2.88652 1.27369 1.72631 2.3622 0.703528L2.37605 0.690472C2.52761 0.547604 2.67628 0.407466 2.81931 0.267328C3.19277 -0.0951758 3.78732 -0.0872087 4.14584 0.280275L8.53572 4.7578C8.71 4.93407 8.80561 5.1701 8.80362 5.42006C8.80163 5.67103 8.70303 5.90705 8.52377 6.08233L7.18131 7.3979C7.12754 7.72057 8.19015 9.45641 9.94989 10.9373C11.0972 11.9033 11.6459 11.9591 11.7216 11.9252C11.7445 11.8924 12.3062 11.3426 12.6736 10.9831L12.8967 10.766C13.4664 10.2093 14.0181 10.3706 14.3209 10.6784ZM16.5746 17.1556L16.6582 17.077C16.7399 17.0013 17.9559 15.8142 18.0276 15.7415L13.6576 11.4223C13.6417 11.4352 13.6197 11.4532 13.5948 11.4781L13.3718 11.6952C12.9973 12.0636 12.4227 12.6243 12.354 12.6871C12.3191 12.7189 12.2126 12.7946 12.1707 12.8155C10.8193 13.4967 8.19613 10.8029 7.20322 9.47035C6.22327 8.15478 5.97728 7.22362 6.47324 6.70078L7.82765 5.37226L3.43378 0.976402C3.36506 1.12678 3.20572 1.27716 3.04339 1.42854L3.04155 1.43027C2.05121 2.36189 1.02669 3.32565 0.995839 4.83747C0.956003 6.83323 2.6042 9.50521 6.03504 13.0058C9.37327 16.4077 13.5839 19.9581 16.5746 17.1556Z" fill="#fff"/>
</svg>
