<svg width="28" height="28" fill="none" xmlns="http://www.w3.org/2000/svg">
  <mask id="a" style="mask-type:alpha" maskUnits="userSpaceOnUse" x="0" y="0" width="28" height="28">
    <path fill-rule="evenodd" clip-rule="evenodd" d="M0 0H27.9999V28H0V0Z" fill="#fff"/>
  </mask>
  <g mask="url(#a)">
    <path fill-rule="evenodd" clip-rule="evenodd" d="M14.0009 0C6.2685 0 0 6.26762 0 13.9991C0 19.733 3.44662 24.6575 8.38075 26.8222C8.33875 25.844 8.37112 24.6715 8.62225 23.6084C8.89262 22.4717 10.4256 15.9784 10.4256 15.9784C10.4256 15.9784 9.9785 15.085 9.9785 13.7646C9.9785 11.6891 11.1807 10.1404 12.677 10.1404C13.9519 10.1404 14.5652 11.0967 14.5652 12.2421C14.5652 13.5214 13.7506 15.4367 13.3306 17.2095C12.9806 18.6952 14.0752 19.9071 15.5391 19.9071C18.1921 19.9071 19.9789 16.499 19.9789 12.4635C19.9789 9.39575 17.9121 7.09887 14.1531 7.09887C9.90587 7.09887 7.26162 10.2655 7.26162 13.8022C7.26162 15.0229 7.6195 15.8821 8.18475 16.548C8.442 16.8551 8.47875 16.9785 8.38425 17.3285C8.31687 17.5866 8.16462 18.207 8.099 18.452C8.00625 18.8072 7.71925 18.9332 7.39812 18.8037C5.4425 18.0031 4.5325 15.8629 4.5325 13.4549C4.5325 9.47712 7.88637 4.70925 14.5364 4.70925C19.8826 4.70925 23.4019 8.57587 23.4019 12.7286C23.4019 18.2201 20.3472 22.3239 15.8462 22.3239C14.3351 22.3239 12.9132 21.5057 12.4267 20.5782C12.4267 20.5782 11.613 23.8044 11.4424 24.4265C11.144 25.5054 10.563 26.5851 10.0327 27.426C11.2919 27.7979 12.6227 28 14.0009 28C21.7332 28 28 21.7324 28 13.9982C28 6.26762 21.7332 0 14.0009 0Z" fill="#fff"/>
  </g>
</svg>
