<svg width="14" height="15" fill="none" xmlns="http://www.w3.org/2000/svg">
  <path fill-rule="evenodd" clip-rule="evenodd" d="M11.3877 6.41107L9.49114 8.2595L9.93914 10.8696C9.96539 11.0236 9.90195 11.1789 9.77595 11.2708C9.7042 11.3229 9.61977 11.3491 9.53489 11.3491C9.46927 11.3491 9.40408 11.3338 9.3437 11.3023L7.00002 10.0699L4.65589 11.3019C4.51764 11.3749 4.35008 11.3627 4.22408 11.2708C4.09764 11.1789 4.0342 11.0236 4.06089 10.8696L4.50845 8.2595L2.61189 6.41107C2.50033 6.30213 2.46008 6.13894 2.5082 5.99063C2.55633 5.84232 2.68495 5.73382 2.83939 5.7115L5.46002 5.33088L6.63208 2.95569C6.7012 2.81569 6.84383 2.72732 7.00002 2.72732C7.15577 2.72732 7.29839 2.81613 7.36752 2.95569L8.53958 5.33088L11.1602 5.7115C11.3151 5.73382 11.4433 5.84232 11.4914 5.99063C11.54 6.13894 11.4997 6.30213 11.3877 6.41107ZM0 7.5C0 11.3601 3.13994 14.5 7 14.5C10.8596 14.5 14 11.3601 14 7.5C14 3.64038 10.8596 0.5 7 0.5C3.13994 0.5 0 3.64038 0 7.5Z" fill="#CCC"/>
</svg>
