<svg width="16" height="15" fill="none" xmlns="http://www.w3.org/2000/svg">
  <path fill-rule="evenodd" clip-rule="evenodd" d="M12.3991 6.40191L10.4779 8.26588L10.9317 10.8979C10.9583 11.0532 10.8941 11.2099 10.7664 11.3025C10.6938 11.355 10.6082 11.3815 10.5222 11.3815C10.4558 11.3815 10.3897 11.366 10.3286 11.3343L7.95445 10.0915L5.57988 11.3338C5.43984 11.4075 5.2701 11.3951 5.14246 11.3025C5.01438 11.2099 4.95012 11.0532 4.97715 10.8979L5.43053 8.26588L3.50934 6.40191C3.39632 6.29206 3.35555 6.1275 3.4043 5.97794C3.45305 5.82838 3.58335 5.71897 3.73979 5.69647L6.39445 5.31265L7.58173 2.9175C7.65176 2.77632 7.79623 2.68721 7.95445 2.68721C8.11222 2.68721 8.2567 2.77677 8.32672 2.9175L9.51401 5.31265L12.1687 5.69647C12.3256 5.71897 12.4554 5.82838 12.5042 5.97794C12.5533 6.1275 12.5126 6.29206 12.3991 6.40191ZM0.863525 7.5C0.863525 11.3925 4.04424 14.5588 7.95444 14.5588C11.8642 14.5588 15.0453 11.3925 15.0453 7.5C15.0453 3.60794 11.8642 0.441177 7.95444 0.441177C4.04424 0.441177 0.863525 3.60794 0.863525 7.5Z" fill="#CCC"/>
  <path fill-rule="evenodd" clip-rule="evenodd" d="M7.95442 10.0915L5.57985 11.3338C5.43981 11.4071 5.27051 11.3956 5.14199 11.3029C5.01435 11.2103 4.95053 11.0532 4.97713 10.8979L5.43094 8.26588L3.50931 6.40235C3.39674 6.29206 3.35597 6.12794 3.40472 5.97794C3.45347 5.82794 3.58376 5.71941 3.73976 5.69647L6.39442 5.31265L7.58215 2.91794C7.65217 2.77677 7.79665 2.68765 7.95442 2.68765V10.0915ZM7.95444 0.441177C4.04469 0.441177 0.863525 3.60794 0.863525 7.5C0.863525 11.3929 4.04469 14.5588 7.95444 14.5588V0.441177Z" fill="#57AD5C"/>
</svg>
