<svg width="200" height="30" fill="none" xmlns="http://www.w3.org/2000/svg">
  <mask id="a" style="mask-type:alpha" maskUnits="userSpaceOnUse" x="0" y="0" width="200" height="30">
    <path fill-rule="evenodd" clip-rule="evenodd" d="M0 0H199.929V29.5761H0V0Z" fill="#fff"/>
  </mask>
  <g mask="url(#a)">
    <path fill-rule="evenodd" clip-rule="evenodd" d="M9.74664 29.5659C14.484 29.5659 17.1636 26.5822 18.0565 23.7534H18.2898V29.0622H19.4546V0H18.2898V14.2212H18.0565C17.1246 11.3538 14.3677 8.40865 9.66901 8.40865C3.80543 8.40865 0 12.7875 0 18.9874C0 25.2259 3.80543 29.5659 9.74664 29.5659ZM9.78562 28.481C4.54313 28.481 1.20351 24.6448 1.20351 18.9874C1.20351 13.3687 4.54313 9.49356 9.74664 9.49356C15.0278 9.49356 18.2898 13.5626 18.2898 18.9874C18.2898 24.2574 15.1831 28.481 9.78562 28.481ZM34.0125 29.5659C38.8278 29.5659 42.2837 26.8924 43.3709 23.1336H42.2061C41.2741 26.1173 38.1674 28.481 34.0514 28.481C28.8089 28.481 25.4696 24.4123 25.3141 19.4523H43.5652V18.4837C43.5652 12.6712 40.0313 8.40865 33.8962 8.40865C28.4594 8.40865 24.1102 12.5548 24.1102 18.9874C24.1102 25.0321 28.1879 29.5659 34.0125 29.5659ZM25.353 18.4059C25.5083 13.0199 29.3137 9.49356 33.8962 9.49356C39.0217 9.49356 42.2837 12.865 42.3613 18.4059H25.353ZM56.1233 29.5659C61.9479 29.5659 65.1323 26.6985 65.1323 22.7459C65.1323 13.6786 53.1719 17.6698 53.1719 14.3373C53.1719 13.2523 54.3371 12.5162 56.162 12.5162C58.1425 12.5162 59.1911 13.3687 59.385 14.6086H64.5885C64.3166 10.3461 60.8997 8.09876 56.162 8.09876C50.6869 8.09876 47.7355 11.1211 47.7355 14.6086C47.7355 23.4049 59.3074 19.3748 59.3074 23.0561C59.3074 24.2185 58.1812 24.9546 56.162 24.9546C54.1818 24.9546 52.978 24.2185 52.8227 22.7848H47.3473C47.4639 26.9309 50.2208 29.5659 56.1233 29.5659ZM78.5406 29.5659C84.1709 29.5659 88.1706 26.1948 88.831 21.3511H82.6955C82.1907 22.9786 80.5984 24.141 78.5792 24.141C75.6668 24.141 73.7642 21.8159 73.7642 18.8322C73.7642 15.8873 75.5891 13.5237 78.5406 13.5237C80.6764 13.5237 82.2294 14.8024 82.7732 16.546H88.8696C88.2872 11.5473 84.2099 8.09876 78.5016 8.09876C71.9003 8.09876 67.6674 12.7875 67.6674 18.8322C67.6674 24.8386 71.939 29.5659 78.5406 29.5659ZM92.5933 29.0622H98.6121V17.5149C98.6121 15.3836 100.088 13.6786 102.185 13.6786C104.243 13.6786 105.563 15.1898 105.563 17.2824V29.0622H111.582V15.4225C111.582 11.16 108.825 8.09876 104.281 8.09876C101.525 8.09876 99.6994 9.45499 98.884 10.8498H98.5732V0H92.5933V29.0622ZM126 29.5659C132.601 29.5659 137.067 24.8772 137.067 18.8322C137.067 12.7875 132.601 8.09876 126.039 8.09876C119.398 8.09876 114.972 12.7875 114.972 18.8322C114.972 24.8772 119.437 29.5659 126 29.5659ZM126 24.141C123.165 24.141 121.068 21.9709 121.068 18.8322C121.068 15.7324 123.165 13.5237 126 13.5237C128.873 13.5237 130.97 15.7324 130.97 18.8322C130.97 21.9323 128.873 24.141 126 24.141ZM155.521 20.0682L154.191 24.9508C153.418 27.8631 154.62 29.5761 156.938 29.5761C161.101 29.5761 163.719 26.2783 165.479 22.7236L164.234 21.9527C163.118 23.8799 161.53 26.1499 160.543 26.1499C159.727 26.1499 159.684 25.2505 160.028 24.1369L164.363 7.5622L158.268 8.07645C157.023 12.4448 156.337 14.7147 155.392 16.8562C153.847 20.5394 150.328 26.1499 148.311 26.1499C147.109 26.1499 147.066 25.1647 147.495 23.5802L151.53 7.77644L151.315 7.5622L141.401 8.67581L141.058 10.0891L143.59 10.3461C144.405 10.4318 144.577 11.0315 144.234 12.3163L141.358 23.366C140.457 26.7923 140.8 29.5761 144.234 29.5761C149.083 29.5761 152.646 25.0363 155.35 20.0682H155.521ZM184.178 8.20493C182.804 13.6011 181.431 18.398 179.113 22.2524C177.397 25.0363 176.152 26.1499 175.165 26.1499C174.178 26.1499 173.534 25.379 174.092 23.0663L177.74 7.77644L177.526 7.5622L167.783 8.67581L167.482 10.0891L170.015 10.3461C170.787 10.4318 170.959 10.9885 170.658 12.3163L167.954 23.5802C166.967 27.6489 168.727 29.5761 171.259 29.5761C175.251 29.5761 178.942 25.8929 181.646 20.7106H181.817C181.431 22.3809 181.088 24.0511 181.088 25.5932C181.088 27.8201 182.204 29.5761 184.95 29.5761C188.813 29.5761 192.161 26.2356 195.036 22.2954C198.084 18.098 199.886 13.4299 199.929 10.86C199.929 9.10429 198.942 7.5622 198.599 7.5622C197.097 7.5622 195.766 7.90493 194.178 8.46189C194.607 10.1321 194.779 11.7597 194.779 13.8581C194.521 19.8113 191.131 26.1499 188.384 26.1499C186.581 26.1499 186.281 24.5223 187.054 21.1391L190.015 7.94797L184.178 8.20493Z" fill="#fff"/>
  </g>
</svg>
