<svg width="18" height="18" viewBox="0 0 18 18" fill="none" xmlns="http://www.w3.org/2000/svg">
  <circle cx="9" cy="9" r="9" fill="#3B3B71"/>
  <path fill-rule="evenodd" clip-rule="evenodd" d="M10.8526 4.307c0 .7363-.4566 1.1929-1.1488 1.1929-.6038 0-1.0456-.3682-1.0456-.9868 0-.5743.383-1.1781 1.1635-1.1781.5596 0 1.0309.3092 1.0309.972Zm-.2798 7.4961c-.5744 1.193-1.4433 2.2828-2.7393 2.2828-.9278 0-1.2224-.6186-.9278-1.7084L8.069 8.0919c.1031-.4271.059-.6039-.2798-.6333l-.8395-.0884.1031-.427 3.1075-.4272.1031.0884-1.5464 5.7142c-.1178.4124-.1325.7364.162.7364.3682 0 .9573-.8689 1.2813-1.4875l.4124.2356Z" fill="#fff"/>
</svg>
