<svg width="28" height="28" fill="none" xmlns="http://www.w3.org/2000/svg">
  <mask id="a" style="mask-type:alpha" maskUnits="userSpaceOnUse" x="0" y="0" width="28" height="28">
    <path fill-rule="evenodd" clip-rule="evenodd" d="M0 0H27.9996V27.9999H0V0Z" fill="#fff"/>
  </mask>
  <g mask="url(#a)">
    <path fill-rule="evenodd" clip-rule="evenodd" d="M20.3918 10.9156C20.398 11.053 20.4006 11.1921 20.4006 11.3312C20.4006 15.5767 17.1692 20.4732 11.2586 20.4741V20.4741V20.4741C9.44386 20.4741 7.75511 19.9421 6.33236 19.0303C6.58436 19.0601 6.83986 19.075 7.09886 19.075C8.60473 19.075 9.99073 18.5613 11.0906 17.6995C9.68361 17.6732 8.49711 16.744 8.08849 15.4673C8.28449 15.505 8.48573 15.5251 8.69223 15.5251C8.98536 15.5251 9.26973 15.4857 9.53923 15.4122C8.06924 15.1173 6.96149 13.818 6.96149 12.2622C6.96149 12.2474 6.96149 12.2351 6.96236 12.2211C7.39461 12.4617 7.88986 12.607 8.41748 12.6227C7.55474 12.047 6.98774 11.0635 6.98774 9.94873C6.98774 9.35986 7.14699 8.80773 7.42261 8.33349C9.00723 10.2777 11.3759 11.5561 14.0464 11.6909C13.9912 11.4555 13.9623 11.2096 13.9623 10.9576C13.9623 9.18398 15.4017 7.74461 17.1762 7.74461C18.1011 7.74461 18.9358 8.13574 19.5221 8.76048C20.2545 8.61611 20.9413 8.34836 21.5626 7.97999C21.322 8.72986 20.8127 9.35986 20.1495 9.75798C20.7996 9.68011 21.4191 9.50773 21.9948 9.25136C21.5643 9.89623 21.0192 10.4624 20.3918 10.9156M14 0C6.26849 0 0 6.26936 0 14C0 21.7306 6.26849 28 14 28C21.7306 28 28 21.7306 28 14C28 6.26936 21.7306 0 14 0" fill="#fff"/>
  </g>
</svg>
