<svg width="28" height="28" fill="none" xmlns="http://www.w3.org/2000/svg">
  <path fill-rule="evenodd" clip-rule="evenodd" d="M12.2568 16.6226L16.8112 13.9993L12.2568 11.377V16.6226Z" fill="#fff"/>
  <path fill-rule="evenodd" clip-rule="evenodd" d="M22.7482 14.014C22.7482 14.014 22.7482 16.8534 22.3877 18.2227C22.1865 18.9718 21.595 19.5624 20.846 19.7645C19.4766 20.125 14 20.125 14 20.125C14 20.125 8.53825 20.125 7.15487 19.7496C6.40588 19.5484 5.81437 18.9569 5.61312 18.2079C5.25262 16.8534 5.25262 14 5.25262 14C5.25262 14 5.25262 11.1606 5.61312 9.79125C5.81437 9.04225 6.41988 8.43675 7.15487 8.2355C8.52425 7.875 14 7.875 14 7.875C14 7.875 19.4766 7.875 20.846 8.2495C21.595 8.45075 22.1865 9.04225 22.3877 9.79125C22.7631 11.1606 22.7482 14.014 22.7482 14.014ZM14 0C6.26937 0 0 6.2685 0 14C0 21.7306 6.26937 28 14 28C21.7315 28 28 21.7306 28 14C28 6.2685 21.7315 0 14 0Z" fill="#fff"/>
</svg>
