<svg width="16" height="16" viewBox="0 0 16 16" fill="none" xmlns="http://www.w3.org/2000/svg">
<path fill-rule="evenodd" clip-rule="evenodd" d="M13.0145 6.7555L10.847 8.868L11.359 11.851C11.389 12.027 11.3165 12.2045 11.1725 12.3095C11.0905 12.369 10.994 12.399 10.897 12.399C10.822 12.399 10.7475 12.3815 10.6785 12.3455L8 10.937L5.321 12.345C5.163 12.4285 4.9715 12.4145 4.8275 12.3095C4.683 12.2045 4.6105 12.027 4.641 11.851L5.1525 8.868L2.985 6.7555C2.8575 6.631 2.8115 6.4445 2.8665 6.275C2.9215 6.1055 3.0685 5.9815 3.245 5.956L6.24 5.521L7.5795 2.8065C7.6585 2.6465 7.8215 2.5455 8 2.5455C8.178 2.5455 8.341 2.647 8.42 2.8065L9.7595 5.521L12.7545 5.956C12.9315 5.9815 13.078 6.1055 13.133 6.275C13.1885 6.4445 13.1425 6.631 13.0145 6.7555ZM0 8C0 12.4115 3.5885 16 8 16C12.411 16 16 12.4115 16 8C16 3.589 12.411 0 8 0C3.5885 0 0 3.589 0 8Z" fill="#CCCCCC"/>
<path fill-rule="evenodd" clip-rule="evenodd" d="M8 10.937L5.321 12.345C5.163 12.428 4.972 12.415 4.827 12.31C4.683 12.205 4.611 12.027 4.641 11.851L5.153 8.868L2.985 6.756C2.858 6.631 2.812 6.445 2.867 6.275C2.922 6.105 3.069 5.982 3.245 5.956L6.24 5.521L7.58 2.807C7.659 2.647 7.822 2.546 8 2.546V10.937ZM8 0C3.589 0 0 3.589 0 8C0 12.412 3.589 16 8 16V0Z" fill="#57AD5C"/>
</svg>
